<mxfile host="app.diagrams.net" modified="2024-01-29T09:06:53.687Z" agent="Mozilla/5.0 (Windows NT 10.0; Win64; x64) AppleWebKit/537.36 (KHTML, like Gecko) Chrome/120.0.0.0 Safari/537.36" version="23.0.2" etag="ONfeXxbI2yY21lg8M5aJ" type="github">
  <diagram name="페이지-1" id="8wKHX2bAlVQGcKZtpeM_">
    <mxGraphModel>
      <root>
        <mxCell id="0" />
        <mxCell id="1" parent="0" />
      </root>
    </mxGraphModel>
  </diagram>
</mxfile>
